<?xml version="1.0" encoding="utf-8"?>
<!-- Generator: Adobe Illustrator 28.0.0, SVG Export Plug-In . SVG Version: 6.00 Build 0)  -->
<svg version="1.1" id="Capa_1" xmlns="http://www.w3.org/2000/svg" xmlns:xlink="http://www.w3.org/1999/xlink" x="0px" y="0px"
	 viewBox="0 0 448.5 482.3" style="enable-background:new 0 0 448.5 482.3;" xml:space="preserve">
<path d="M0.1,258.2v69.3C0,328.4,0,329.4,0,330.3v112c0,22.1,17.9,40,40,40h16c1.2,0,2.4-0.1,3.6-0.2c1.5,0.1,3,0.2,4.5,0.2H96h24
	c22.1,0,40-17.9,40-40v-24v-64c0-17.7,14.3-32,32-32h64c17.7,0,32,14.3,32,32v64v24c0,22.1,17.9,40,40,40h24h32.5
	c1.4,0,2.8,0,4.2-0.1c1.1,0.1,2.2,0.1,3.3,0.1h16c22.1,0,40-17.9,40-40v-16.1c0.3-2.7,0.5-5.4,0.5-8.1l-0.7-159.9H0.1z"/>
<path d="M187.1,18.2l-187,240h447.7L261.6,18.3C242.7-6.1,206-6.1,187.1,18.2z"/>
</svg>
