<?xml version="1.0" encoding="utf-8"?>
<!-- Generator: Adobe Illustrator 28.0.0, SVG Export Plug-In . SVG Version: 6.00 Build 0)  -->
<svg version="1.1" id="Capa_1" xmlns="http://www.w3.org/2000/svg" xmlns:xlink="http://www.w3.org/1999/xlink" x="0px" y="0px"
	 viewBox="0 0 512 448" style="enable-background:new 0 0 512 448;" xml:space="preserve">
<style type="text/css">
	.st0{fill:#FFFFFF;}
</style>
<path d="M448,0h-86.1l-1,1l-127,127H326l1-1L453.8,0.3C451.9,0.1,450,0,448,0z M512,128V64c0-15.1-5.3-29.1-14-40L394,128H512z
	 M294.1,0h-92.2l-1,1l-127,127H166l1-1L294,0H294.1z M64,0C28.7,0,0,28.7,0,64v64h6.1l1-1l127-127H64z M512,160H0v224
	c0,35.3,28.7,64,64,64h384c35.3,0,64-28.7,64-64V160z"/>
<g>
	<path class="st0" d="M435.9,420.7H76.1c-24.9,0-45.1-20.2-45.1-45.1V224.8c0-24.9,20.2-45.1,45.1-45.1h359.8
		c24.9,0,45.1,20.2,45.1,45.1v150.8C481,400.5,460.8,420.7,435.9,420.7z"/>
	<polygon points="360.5,308.2 191.5,210.6 191.5,405.8 	"/>
</g>
</svg>
